<mxfile host="app.diagrams.net" modified="2022-10-20T08:40:22.076Z" agent="5.0 (Windows NT 10.0; Win64; x64) AppleWebKit/537.36 (KHTML, like Gecko) Chrome/106.0.0.0 Safari/537.36" etag="iZpK0V2gtZ1GFH7yHgVj" version="20.4.2" type="github">
  <diagram id="1BFLsFC23LwZ4Tyq1mHe" name="페이지-1">
    <mxGraphModel dx="689" dy="446" grid="1" gridSize="10" guides="1" tooltips="1" connect="1" arrows="1" fold="1" page="1" pageScale="1" pageWidth="1169" pageHeight="827" math="0" shadow="0">
      <root>
        <mxCell id="0" />
        <mxCell id="faKOK6Lq2EOhZ4R2kgbc-30" value="arrow" parent="0" />
        <mxCell id="faKOK6Lq2EOhZ4R2kgbc-31" value="" style="endArrow=classic;html=1;rounded=0;fontSize=22;entryX=0;entryY=0.75;entryDx=0;entryDy=0;" edge="1" parent="faKOK6Lq2EOhZ4R2kgbc-30">
          <mxGeometry width="50" height="50" relative="1" as="geometry">
            <mxPoint x="190" y="390" as="sourcePoint" />
            <mxPoint x="276" y="316" as="targetPoint" />
          </mxGeometry>
        </mxCell>
        <mxCell id="faKOK6Lq2EOhZ4R2kgbc-32" value="" style="endArrow=classic;html=1;rounded=0;fontSize=22;entryX=0.004;entryY=0.508;entryDx=0;entryDy=0;entryPerimeter=0;" edge="1" parent="faKOK6Lq2EOhZ4R2kgbc-30" target="faKOK6Lq2EOhZ4R2kgbc-51">
          <mxGeometry width="50" height="50" relative="1" as="geometry">
            <mxPoint x="190" y="390" as="sourcePoint" />
            <mxPoint x="280" y="480" as="targetPoint" />
          </mxGeometry>
        </mxCell>
        <mxCell id="faKOK6Lq2EOhZ4R2kgbc-53" value="" style="endArrow=classic;html=1;rounded=0;fontSize=22;" edge="1" parent="faKOK6Lq2EOhZ4R2kgbc-30" source="ipY7upk18AWSS5D93XIC-3">
          <mxGeometry width="50" height="50" relative="1" as="geometry">
            <mxPoint x="150" y="420" as="sourcePoint" />
            <mxPoint x="190" y="390" as="targetPoint" />
          </mxGeometry>
        </mxCell>
        <mxCell id="1" style="locked=1;" parent="0" />
        <mxCell id="ipY7upk18AWSS5D93XIC-2" value="" style="outlineConnect=0;dashed=0;verticalLabelPosition=bottom;verticalAlign=top;align=center;html=1;shape=mxgraph.aws3.users;fillColor=#D2D3D3;gradientColor=none;" parent="1" vertex="1">
          <mxGeometry x="10" y="340.5" width="66" height="63" as="geometry" />
        </mxCell>
        <mxCell id="faKOK6Lq2EOhZ4R2kgbc-17" value="" style="edgeStyle=orthogonalEdgeStyle;rounded=0;orthogonalLoop=1;jettySize=auto;html=1;" edge="1" parent="1" source="ipY7upk18AWSS5D93XIC-3" target="ipY7upk18AWSS5D93XIC-2">
          <mxGeometry relative="1" as="geometry" />
        </mxCell>
        <mxCell id="ipY7upk18AWSS5D93XIC-3" value="" style="outlineConnect=0;dashed=0;verticalLabelPosition=bottom;verticalAlign=top;align=center;html=1;shape=mxgraph.aws3.management_console;fillColor=#D2D3D3;gradientColor=none;" parent="1" vertex="1">
          <mxGeometry x="100" y="340" width="63" height="63" as="geometry" />
        </mxCell>
        <mxCell id="faKOK6Lq2EOhZ4R2kgbc-22" value="&lt;font style=&quot;font-size: 26px;&quot;&gt;Web Server&lt;/font&gt;" style="text;html=1;strokeColor=none;fillColor=none;align=center;verticalAlign=middle;whiteSpace=wrap;rounded=0;" vertex="1" parent="1">
          <mxGeometry x="260" y="130" width="160" height="40" as="geometry" />
        </mxCell>
        <mxCell id="faKOK6Lq2EOhZ4R2kgbc-23" value="&lt;font style=&quot;font-size: 26px;&quot;&gt;Was Server&lt;/font&gt;" style="text;html=1;strokeColor=none;fillColor=none;align=center;verticalAlign=middle;whiteSpace=wrap;rounded=0;" vertex="1" parent="1">
          <mxGeometry x="600" y="130" width="160" height="40" as="geometry" />
        </mxCell>
        <mxCell id="faKOK6Lq2EOhZ4R2kgbc-24" value="&lt;font style=&quot;font-size: 26px;&quot;&gt;DB Server&lt;/font&gt;" style="text;html=1;strokeColor=none;fillColor=none;align=center;verticalAlign=middle;whiteSpace=wrap;rounded=0;" vertex="1" parent="1">
          <mxGeometry x="930" y="130" width="160" height="40" as="geometry" />
        </mxCell>
        <mxCell id="faKOK6Lq2EOhZ4R2kgbc-25" value="&lt;font style=&quot;font-size: 15px;&quot;&gt;Presentation Tier&lt;/font&gt;" style="text;html=1;strokeColor=none;fillColor=none;align=center;verticalAlign=middle;whiteSpace=wrap;rounded=0;fontSize=26;" vertex="1" parent="1">
          <mxGeometry x="270" y="170" width="140" height="30" as="geometry" />
        </mxCell>
        <mxCell id="faKOK6Lq2EOhZ4R2kgbc-26" value="&lt;font style=&quot;font-size: 15px;&quot;&gt;Application Tier&lt;/font&gt;" style="text;html=1;strokeColor=none;fillColor=none;align=center;verticalAlign=middle;whiteSpace=wrap;rounded=0;fontSize=26;" vertex="1" parent="1">
          <mxGeometry x="610" y="170" width="140" height="30" as="geometry" />
        </mxCell>
        <mxCell id="faKOK6Lq2EOhZ4R2kgbc-27" value="&lt;font style=&quot;font-size: 15px;&quot;&gt;Data Tier&lt;/font&gt;" style="text;html=1;strokeColor=none;fillColor=none;align=center;verticalAlign=middle;whiteSpace=wrap;rounded=0;fontSize=26;" vertex="1" parent="1">
          <mxGeometry x="940" y="170" width="140" height="30" as="geometry" />
        </mxCell>
        <mxCell id="faKOK6Lq2EOhZ4R2kgbc-28" value="&lt;font style=&quot;font-size: 22px;&quot;&gt;End Users&lt;/font&gt;" style="text;html=1;strokeColor=none;fillColor=none;align=center;verticalAlign=middle;whiteSpace=wrap;rounded=0;fontSize=15;" vertex="1" parent="1">
          <mxGeometry x="19" y="414" width="144" height="37" as="geometry" />
        </mxCell>
        <mxCell id="faKOK6Lq2EOhZ4R2kgbc-35" value="outerline" style="locked=1;" parent="0" />
        <mxCell id="faKOK6Lq2EOhZ4R2kgbc-36" value="" style="group" vertex="1" connectable="0" parent="faKOK6Lq2EOhZ4R2kgbc-35">
          <mxGeometry x="190" y="110" width="960" height="570" as="geometry" />
        </mxCell>
        <mxCell id="faKOK6Lq2EOhZ4R2kgbc-37" value="" style="rounded=1;arcSize=10;dashed=1;fillColor=none;gradientColor=none;dashPattern=8 3 1 3;strokeWidth=2;" vertex="1" parent="faKOK6Lq2EOhZ4R2kgbc-36">
          <mxGeometry width="300" height="570" as="geometry" />
        </mxCell>
        <mxCell id="faKOK6Lq2EOhZ4R2kgbc-38" value="" style="rounded=1;arcSize=10;dashed=1;fillColor=none;gradientColor=none;dashPattern=8 3 1 3;strokeWidth=2;" vertex="1" parent="faKOK6Lq2EOhZ4R2kgbc-36">
          <mxGeometry x="340" width="300" height="570" as="geometry" />
        </mxCell>
        <mxCell id="faKOK6Lq2EOhZ4R2kgbc-39" value="" style="rounded=1;arcSize=10;dashed=1;fillColor=none;gradientColor=none;dashPattern=8 3 1 3;strokeWidth=2;" vertex="1" parent="faKOK6Lq2EOhZ4R2kgbc-36">
          <mxGeometry x="660" width="300" height="570" as="geometry" />
        </mxCell>
        <mxCell id="faKOK6Lq2EOhZ4R2kgbc-43" value="icons" style="locked=1;" parent="0" />
        <mxCell id="faKOK6Lq2EOhZ4R2kgbc-44" value="" style="group" vertex="1" connectable="0" parent="faKOK6Lq2EOhZ4R2kgbc-43">
          <mxGeometry x="276" y="220" width="814" height="322" as="geometry" />
        </mxCell>
        <mxCell id="faKOK6Lq2EOhZ4R2kgbc-45" value="" style="shape=image;html=1;verticalAlign=top;verticalLabelPosition=bottom;labelBackgroundColor=#ffffff;imageAspect=0;aspect=fixed;image=https://cdn4.iconfinder.com/data/icons/thin-line-icons-for-seo-and-development-1/64/seo_programming-128.png" vertex="1" parent="faKOK6Lq2EOhZ4R2kgbc-44">
          <mxGeometry x="332" y="80" width="144" height="144" as="geometry" />
        </mxCell>
        <mxCell id="faKOK6Lq2EOhZ4R2kgbc-46" value="" style="shape=image;html=1;verticalAlign=top;verticalLabelPosition=bottom;labelBackgroundColor=#ffffff;imageAspect=0;aspect=fixed;image=https://cdn4.iconfinder.com/data/icons/minicons-3/640/dialog_box_black-128.png" vertex="1" parent="faKOK6Lq2EOhZ4R2kgbc-44">
          <mxGeometry width="128" height="128" as="geometry" />
        </mxCell>
        <mxCell id="faKOK6Lq2EOhZ4R2kgbc-47" value="" style="group" vertex="1" connectable="0" parent="faKOK6Lq2EOhZ4R2kgbc-44">
          <mxGeometry x="654" y="62.5" width="160" height="178" as="geometry" />
        </mxCell>
        <mxCell id="faKOK6Lq2EOhZ4R2kgbc-48" value="" style="strokeWidth=2;html=1;shape=mxgraph.flowchart.database;whiteSpace=wrap;" vertex="1" parent="faKOK6Lq2EOhZ4R2kgbc-47">
          <mxGeometry width="90" height="110" as="geometry" />
        </mxCell>
        <mxCell id="faKOK6Lq2EOhZ4R2kgbc-49" value="" style="strokeWidth=2;html=1;shape=mxgraph.flowchart.database;whiteSpace=wrap;" vertex="1" parent="faKOK6Lq2EOhZ4R2kgbc-47">
          <mxGeometry x="70" y="30" width="90" height="110" as="geometry" />
        </mxCell>
        <mxCell id="faKOK6Lq2EOhZ4R2kgbc-50" value="" style="strokeWidth=2;html=1;shape=mxgraph.flowchart.database;whiteSpace=wrap;" vertex="1" parent="faKOK6Lq2EOhZ4R2kgbc-47">
          <mxGeometry x="30" y="68" width="90" height="110" as="geometry" />
        </mxCell>
        <mxCell id="faKOK6Lq2EOhZ4R2kgbc-51" value="" style="shape=image;html=1;verticalAlign=top;verticalLabelPosition=bottom;labelBackgroundColor=#ffffff;imageAspect=0;aspect=fixed;image=https://cdn2.iconfinder.com/data/icons/simple-files/128/HTML.png;fontSize=22;" vertex="1" parent="faKOK6Lq2EOhZ4R2kgbc-44">
          <mxGeometry y="194" width="128" height="128" as="geometry" />
        </mxCell>
      </root>
    </mxGraphModel>
  </diagram>
</mxfile>
